<?xml version="1.0" encoding="UTF-8" standalone="no"?>
<!-- Created with Inkscape (http://www.inkscape.org/) -->

<svg
   width="218.15578mm"
   height="217.71111mm"
   viewBox="0 0 218.15578 217.71111"
   version="1.1"
   id="svg1"
   xml:space="preserve"
   xmlns:inkscape="http://www.inkscape.org/namespaces/inkscape"
   xmlns:sodipodi="http://sodipodi.sourceforge.net/DTD/sodipodi-0.dtd"
   xmlns="http://www.w3.org/2000/svg"
   xmlns:svg="http://www.w3.org/2000/svg"><sodipodi:namedview
     id="namedview1"
     pagecolor="#ffffff"
     bordercolor="#000000"
     borderopacity="0.25"
     inkscape:showpageshadow="2"
     inkscape:pageopacity="0.0"
     inkscape:pagecheckerboard="0"
     inkscape:deskcolor="#d1d1d1"
     inkscape:document-units="mm" /><defs
     id="defs1" /><g
     inkscape:label="Layer 1"
     inkscape:groupmode="layer"
     id="layer1"
     transform="translate(4.0009848,-39.800177)"><g
       id="g1"
       transform="translate(-0.01233006,0.04392135)"><path
         style="display:inline;fill:#fbe9d5"
         d="m 97.823696,254.59275 c -5.095355,-0.34533 -12.726921,-0.9193 -17.634095,-2.15843 -8.720825,-2.20214 -14.838159,-5.03901 -22.392227,-8.80096 C 43.776779,236.65107 32.966102,230.02074 22.740393,217.72223 14.986184,208.39621 9.1940959,197.38266 4.8014218,185.45702 2.849692,180.15828 -0.21418457,169.33834 -0.96742245,163.73975 -2.418719,152.9527 6.2861747,144.79212 -0.44237335,132.91706 c -0.36500795,-0.64419 0.245362,-5.65038 0.5477996,-7.25111 C 2.9803342,110.44975 9.8262609,97.358806 19.512086,84.511418 24.287871,78.176763 32.910543,70.058244 38.955184,65.228268 52.463038,54.434804 64.470295,49.566731 81.339644,45.917154 c 19.322446,-4.180289 38.659746,-2.911525 56.871036,3.473396 11.58162,4.060543 22.46091,9.626794 32.03364,17.263982 3.95094,3.15209 12.99834,12.618051 16.19841,16.548347 10.22439,12.557496 16.89036,23.981291 20.76531,39.331821 2.62875,10.41378 3.93883,16.05415 3.72403,27.77475 -0.15266,8.3301 -1.60165,11.72997 -2.93543,19.11884 -3.1306,17.3429 -15.16771,41.65458 -34.00043,57.2853 -16.71808,13.87562 -32.18871,21.38252 -55.42892,27.13972 -3.20878,0.7949 -17.1552,0.98264 -20.743594,0.73944 z"
         id="path6"
         sodipodi:nodetypes="ssssssssssssssssssss" /><path
         style="display:inline;fill:#f4dad6"
         d="M 96.143209,250.71533 C 81.53826,249.34556 73.366156,245.14077 61.603242,239.34618 53.740637,235.47295 48.124146,234.89797 41.564911,229.65052 37.656601,226.52384 30.589409,217.53369 27.482568,213.71588 10.610173,192.98236 2.084665,173.51048 2.8372603,146.96618 3.0714601,138.70587 -2.716768,138.71843 1.7460525,124.22318 8.3390176,102.80923 20.098642,86.476892 37.01139,71.656531 57.306,53.872701 79.287145,46.785507 106.25106,46.775485 c 22.87941,-0.0085 40.20154,6.268632 59.53923,19.500802 9.4754,6.483714 18.49926,13.468514 25.68142,23.598275 10.81922,15.259478 17.00413,29.754138 18.79326,49.406488 0.46319,5.08778 0.92609,17.35295 0.23696,22.35512 -1.79759,13.04816 -13.84588,35.34606 -16.91766,39.59787 -13.56954,18.7823 -18.74526,26.91266 -40.57598,38.01195 -11.03577,5.61086 -22.416,11.07248 -36.33368,12.8624 -3.5711,0.45927 -16.96367,-1.05845 -20.531401,-1.39306 z m 79.559781,-49.23103 -0.40148,-0.61274 -0.39307,0.56117 c -0.32417,0.46282 -0.33473,0.67018 -0.0603,1.18301 l 0.33278,0.62182 0.46177,-0.57026 c 0.41786,-0.51603 0.42359,-0.62851 0.0603,-1.183 z M 32.749354,187.12916 c 0.956343,-7.93402 4.14846,-11.81741 10.993256,-13.3739 0.747915,-0.17008 0.702081,-0.20626 -0.79375,-0.62658 -4.060935,-1.1411 -6.687982,-3.10125 -8.211817,-6.12718 -1.069825,-2.12439 -1.573943,-4.02551 -2.010036,-7.58022 -0.182501,-1.48762 -0.362742,-2.67384 -0.400535,-2.63604 -0.03779,0.0378 -0.205641,1.19486 -0.372996,2.57128 -0.656177,5.39671 -1.849887,8.4294 -4.195564,10.65906 -1.523637,1.44827 -4.302058,2.8337 -6.501544,3.24191 l -1.054993,0.1958 2.298723,0.71657 c 6.223938,1.94016 8.437873,5.25184 9.608429,14.37262 0.09042,0.70456 0.203431,1.24034 0.251129,1.19062 0.0477,-0.0497 0.223062,-1.22149 0.389698,-2.60394 z M 174.26469,158.74957 c 0.0605,-0.31401 -0.0805,-0.45999 -0.44436,-0.45999 -0.60678,0 -0.94281,0.39517 -0.68742,0.8084 0.25751,0.41667 1.03026,0.17878 1.13178,-0.34841 z m -99.561665,-3.34499 c 1.470595,-0.65051 2.114586,-1.6824 2.541769,-4.07278 0.396265,-2.21736 -0.0048,-5.73907 -0.774401,-6.80055 -1.152936,-1.59013 -4.335987,-2.40754 -7.480033,-1.92089 -2.631273,0.40729 -3.543028,0.93881 -4.334347,2.52678 -0.600181,1.20441 -0.672152,1.66568 -0.666968,4.27471 0.0089,4.46579 0.762997,5.69514 3.935056,6.41479 1.971326,0.44724 5.279329,0.24128 6.778924,-0.42206 z m 20.39049,-0.0359 c 0.855405,-0.41409 1.288485,-0.85783 1.748293,-1.79131 0.537961,-1.09215 0.610037,-1.6214 0.601379,-4.41587 -0.01086,-3.50573 -0.2525,-4.28928 -1.697806,-5.50543 -1.679154,-1.41291 -6.487459,-1.62784 -8.960706,-0.40053 -1.622738,0.80526 -2.409845,2.32176 -2.609258,5.02719 -0.252756,3.42914 0.42138,5.66865 2.078882,6.90615 1.458495,1.08893 6.73932,1.19634 8.839216,0.1798 z m 19.768745,0.18212 c 2.08424,-0.87085 3.02016,-3.33115 2.74745,-7.22233 -0.17939,-2.55964 -0.60753,-3.70603 -1.73996,-4.6589 -1.04797,-0.88181 -2.1701,-1.12376 -5.18756,-1.11852 -1.9994,0.003 -2.59339,0.10955 -3.70417,0.66146 -1.87259,0.93044 -2.54148,2.23108 -2.71531,5.27989 -0.27666,4.85217 0.95471,6.86121 4.55717,7.43524 1.7549,0.27963 4.94782,0.0805 6.04238,-0.37684 z m 19.11381,0.21142 c 2.5362,-0.6606 3.28877,-1.71301 3.70103,-5.17557 0.22311,-1.87389 -0.268,-5.1874 -0.89748,-6.05536 -1.60072,-2.20713 -6.80422,-2.79494 -10.25329,-1.15825 -0.62086,0.29462 -1.08562,0.8333 -1.56589,1.81493 -0.58627,1.19828 -0.68371,1.75097 -0.68812,3.90315 -0.006,2.72105 0.3072,4.25162 1.04851,5.1308 1.43418,1.7009 5.35784,2.39916 8.65524,1.5403 z M 11.595737,155.23126 c 0,-0.22687 -0.119063,-0.33891 -0.264584,-0.24897 -0.14552,0.0899 -0.264583,0.27556 -0.264583,0.41249 0,0.13693 0.119063,0.24897 0.264583,0.24897 0.145521,0 0.264584,-0.18562 0.264584,-0.41249 z m 62.97083,-18.49476 c 0.509323,-0.25913 1.135672,-0.65498 1.391886,-0.87968 0.65526,-0.57464 1.51853,-3.54844 1.51853,-5.23104 0,-5.06464 -2.078746,-6.9452 -7.38233,-6.67853 -4.672819,0.23496 -5.875497,1.48836 -6.059884,6.31546 -0.09338,2.44452 -0.03324,2.96819 0.477119,4.15454 0.970893,2.2569 2.717793,3.01728 6.615096,2.87935 1.742032,-0.0617 2.797782,-0.23357 3.439583,-0.5601 z m 19.165487,0.36305 c 2.82048,-0.71021 3.995269,-2.9354 3.808175,-7.21315 -0.132036,-3.0189 -0.687899,-4.25742 -2.319249,-5.16752 -2.226542,-1.24214 -7.77512,-0.97254 -9.371631,0.45536 -2.098889,1.87722 -2.336233,8.01618 -0.40485,10.47153 0.898957,1.14284 2.549859,1.67265 5.342925,1.71465 0.990586,0.0149 2.31567,-0.1025 2.94463,-0.26087 z m 20.041416,-0.0118 c 2.52521,-0.54156 3.92018,-2.80112 3.92018,-6.34986 0,-3.74544 -1.21853,-5.90629 -3.71376,-6.58574 -1.46967,-0.40019 -5.61323,-0.19423 -6.89878,0.34291 -1.95415,0.81649 -2.88121,2.86775 -2.88121,6.37512 0,3.4628 1.19513,5.48677 3.62581,6.14036 1.60475,0.4315 4.14218,0.46444 5.94776,0.0772 z m 21.29162,-0.52224 c 0.73754,-0.36694 1.47004,-0.97844 1.74181,-1.45408 0.6483,-1.13465 1.02219,-4.3916 0.73631,-6.41411 -0.2999,-2.12165 -0.93841,-3.18819 -2.40059,-4.00985 -1.05728,-0.59413 -1.47335,-0.66146 -4.08751,-0.66146 -2.57647,0 -3.06171,0.0759 -4.2289,0.66146 -0.77907,0.39085 -1.51242,1.0008 -1.79252,1.49092 -1.01455,1.77523 -1.02316,7.12968 -0.0142,8.84371 0.53606,0.91069 1.83338,1.80543 3.08771,2.12955 0.4572,0.11813 1.92338,0.17707 3.25819,0.13096 1.91381,-0.0661 2.69602,-0.21773 3.69973,-0.7171 z m -96.5286,-0.0599 c 0.05063,-0.26108 -0.08434,-0.4411 -0.330729,-0.4411 -0.245437,0 -0.416276,0.22622 -0.416276,0.55122 0,0.6448 0.618272,0.55366 0.747005,-0.11012 z m -22.326554,-12.69546 0.675753,-0.99578 -0.665058,-1.31243 c -0.365782,-0.72183 -0.719527,-1.31243 -0.786099,-1.31243 -0.06657,0 -0.303963,0.35374 -0.527535,0.78608 -0.223573,0.43234 -0.651142,1.014 -0.950153,1.29257 l -0.543657,0.50649 0.795419,0.56639 c 0.43748,0.31152 0.872862,0.81039 0.967516,1.10862 0.199161,0.6275 0.15579,0.65433 1.033814,-0.63951 z M 74.0374,118.02479 c 1.411063,-0.44175 2.280014,-1.16537 2.720059,-2.26515 1.032968,-2.58165 0.760562,-7.5518 -0.495732,-9.04482 -1.006771,-1.19648 -2.532951,-1.67938 -5.273345,-1.66855 -5.514826,0.0218 -7.048588,1.49723 -7.078189,6.80894 -0.02469,4.43078 1.032956,5.8904 4.703249,6.49076 1.527635,0.24988 4.083211,0.0986 5.423958,-0.32118 z m 20.795966,-0.19143 c 1.902582,-0.86405 2.757939,-2.82487 2.745482,-6.29375 -0.0092,-2.57506 -0.411078,-4.03617 -1.3881,-5.04732 -1.044133,-1.08061 -2.349062,-1.4431 -5.220015,-1.45007 -4.952068,-0.012 -6.455481,1.22771 -6.792755,5.60139 -0.308534,4.00098 0.706057,6.50563 2.956296,7.298 1.637172,0.57649 6.336836,0.51041 7.699092,-0.10825 z m 19.711944,0.20209 c 1.24142,-0.41692 1.81737,-0.96345 2.4091,-2.28604 0.98176,-2.19437 0.8554,-7.29355 -0.22148,-8.93707 -0.9601,-1.46531 -4.1259,-2.18657 -7.49272,-1.70706 -2.44468,0.34818 -3.40187,0.88987 -4.23701,2.39783 -0.52385,0.94587 -0.67265,1.65035 -0.75749,3.58627 -0.17719,4.04296 0.70222,6.02938 3.03796,6.86219 1.25489,0.44743 6.01541,0.50242 7.26164,0.0839 z m 20.61487,-0.29326 c 0.65469,-0.33185 1.38943,-0.97 1.66016,-1.44192 1.03656,-1.80693 1.02221,-7.898 -0.022,-9.33984 -0.26348,-0.36381 -1.0447,-0.94502 -1.73605,-1.29159 -1.04459,-0.52364 -1.6682,-0.63182 -3.69042,-0.64018 -2.98934,-0.0124 -4.52425,0.39781 -5.6313,1.50486 -1.08386,1.08386 -1.429,2.36013 -1.43084,5.29099 -0.003,5.15414 1.39985,6.47852 6.88777,6.50138 2.38151,0.01 2.95952,-0.0752 3.9627,-0.5837 z m -96.396204,-2.36471 c -0.08446,-0.21107 -0.147157,-0.14838 -0.159852,0.15985 -0.01149,0.27891 0.05105,0.43518 0.138964,0.34726 0.08792,-0.0879 0.09732,-0.31612 0.02089,-0.50711 z M 74.062748,99.146268 c 2.425885,-0.855902 3.286804,-2.558513 3.273226,-6.473348 -0.01418,-4.089498 -0.828062,-5.459732 -3.684897,-6.203844 -1.862973,-0.485242 -3.182868,-0.515308 -5.319771,-0.12118 -2.003606,0.369544 -2.956096,0.9312 -3.547214,2.09169 -1.394897,2.738481 -1.054879,8.183846 0.608595,9.746599 0.329132,0.309202 1.069384,0.734633 1.645005,0.945401 1.437837,0.526474 5.550122,0.535069 7.025056,0.01468 z m 19.950693,0.115658 c 2.573638,-0.698429 3.729865,-3.094929 3.511094,-7.277412 -0.165496,-3.163956 -0.677403,-4.22884 -2.466612,-5.131112 -1.152325,-0.581102 -1.641704,-0.659137 -4.08719,-0.651739 -3.189553,0.0097 -4.802211,0.542817 -5.775299,1.909394 -1.315278,1.847137 -1.468408,6.578725 -0.289868,8.956648 0.556277,1.12239 0.83396,1.371532 2.096417,1.88094 1.642374,0.662707 5.146863,0.819292 7.011458,0.313281 z m 20.285739,-0.0192 c 2.40505,-0.720573 3.59653,-3.385441 3.32032,-7.426294 -0.29577,-4.326968 -1.73928,-5.590461 -6.39744,-5.599627 -1.4611,-0.0029 -3.14661,0.139184 -3.7456,0.315687 -2.3986,0.706799 -3.41623,2.929065 -3.22313,7.03855 0.16579,3.528495 1.04868,4.99474 3.4178,5.676093 1.26977,0.365181 5.40364,0.362431 6.62805,-0.0044 z m 20.14474,-0.111149 c 2.30033,-0.783802 3.16906,-2.559599 3.1596,-6.458658 -0.0125,-5.155731 -1.39923,-6.487054 -6.71968,-6.451277 -4.54449,0.03056 -5.90973,1.012268 -6.60138,4.746878 -0.51367,2.773628 0.20119,6.148376 1.55734,7.351951 0.30254,0.268498 1.00443,0.650225 1.55977,0.848282 1.41988,0.506394 5.51245,0.484795 7.04435,-0.03718 z m -29.32653,-42.44199 0.58209,-0.661458 -0.87039,-1.269159 -0.87038,-1.26916 -0.52959,1.03809 c -0.29128,0.570949 -0.732,1.11576 -0.97939,1.210691 -0.40563,0.155653 -0.39358,0.224978 0.1227,0.705962 0.31487,0.293347 0.77014,0.835007 1.01171,1.203688 0.40775,0.622314 0.45755,0.635678 0.69519,0.186567 0.14079,-0.266069 0.51792,-0.781419 0.83806,-1.145221 z"
         id="path5"
         sodipodi:nodetypes="ssssssssssssssssscsscssssssssssscsssssssssscsssssssssssssssscssssssssscssscssssssssscsssssssssssssssscsssssssssccssssscsssscssscssssscscsssssssssssssssssscsccssssssssssssssssssscssssssssssssssssssssscccssssss" /><path
         style="display:inline;fill:#e44e92"
         d="M 99.966565,257.22045 C 63.257221,255.35219 30.444768,235.83388 11.519107,204.60797 5.027148,193.89673 0.50114325,182.20419 -2.006142,169.66667 -4.5045786,157.17339 -4.6497256,142.06966 -2.3951677,129.18542 1.7487467,105.50396 14.091439,83.343032 31.920981,67.571816 36.723243,63.32395 39.78927,60.961215 44.54853,57.840803 62.933296,45.786819 83.133742,39.756256 105.12594,39.756256 c 20.53611,0 39.58102,5.317887 56.89548,15.886857 21.965,13.407721 37.99307,33.342646 46.37157,57.674707 4.22211,12.26144 6.35559,27.48085 5.63667,40.20967 -1.36241,24.12188 -9.10239,44.49572 -24.0731,63.3673 -3.28631,4.14261 -11.97975,12.83254 -16.17125,16.16472 -18.81083,14.95434 -39.69513,22.8095 -64.29375,24.18266 -2.54661,0.14216 -4.8088,0.24239 -5.02708,0.22274 -0.21828,-0.0197 -2.24234,-0.12966 -4.497915,-0.24446 z M 128.68651,240.5174 c 0.10284,-0.46824 0.55561,-1.1957 1.00617,-1.61657 l 0.81918,-0.76524 -0.55547,-0.44979 c -0.6306,-0.51063 -1.41483,-1.90834 -1.41483,-2.52162 0,-0.77825 -0.47075,-0.40746 -0.64207,0.50573 -0.0945,0.50366 -0.53361,1.27757 -0.97584,1.71979 l -0.80404,0.80405 0.79289,0.79289 c 0.43609,0.43609 0.87143,1.15046 0.96742,1.5875 0.22741,1.03542 0.57203,1.01118 0.80659,-0.0567 z m -0.0398,-30.63052 c 4.54864,-0.57693 7.80763,-3.23671 9.03659,-7.37506 0.34132,-1.14938 0.39235,-3.16387 0.32764,-12.93608 -0.0755,-11.4065 -0.0856,-11.5968 -0.69063,-13.09517 -1.25386,-3.10501 -4.49246,-5.64778 -8.01245,-6.29094 -0.96514,-0.17634 -10.61618,-0.24519 -27.64895,-0.19724 -23.953794,0.0674 -26.279142,0.11221 -27.501158,0.52959 -2.946788,1.00647 -5.33182,3.2837 -6.516267,6.22174 -0.601975,1.4932 -0.615068,1.72818 -0.69433,12.46055 -0.05224,7.0732 0.01943,11.42081 0.202802,12.30312 0.963592,4.63632 4.519904,7.89749 9.120308,8.36339 2.995708,0.30339 49.997485,0.31783 52.376445,0.0161 z m 46.99071,-5.67179 c 0,-0.20712 0.29766,-0.73032 0.66146,-1.16267 0.79389,-0.94348 0.81285,-1.15215 0.1585,-1.74434 -0.27664,-0.25034 -0.57969,-0.86411 -0.67345,-1.36392 -0.21575,-1.15002 -0.55242,-1.15786 -0.92741,-0.0216 -0.16103,0.48792 -0.58825,1.1647 -0.94936,1.50396 l -0.65658,0.61682 0.63193,0.67885 c 0.34756,0.37337 0.76972,0.94675 0.93815,1.27417 0.34321,0.66723 0.81676,0.79405 0.81676,0.21874 z M 32.801839,192.00222 c 0.60022,-5.47263 0.818711,-7.0291 1.185466,-8.44493 1.28758,-4.97059 4.226298,-7.82122 9.35843,-9.07791 1.371642,-0.33587 2.010228,-0.61997 2.068101,-0.92007 0.05645,-0.29273 -0.159023,-0.48785 -0.661459,-0.59899 -3.793382,-0.83912 -6.151284,-1.99251 -7.903999,-3.8663 -2.182522,-2.33329 -3.165955,-5.46821 -3.804385,-12.12735 -0.174394,-1.81901 -0.372116,-3.58006 -0.439383,-3.91343 -0.228068,-1.13029 -0.572348,-0.33602 -0.748484,1.7268 -0.500501,5.8616 -1.37138,10.23551 -2.458688,12.34853 -0.7008,1.3619 -2.802478,3.36563 -4.348993,4.14631 -0.827668,0.41781 -2.346011,0.99275 -3.374096,1.27764 -1.028086,0.2849 -1.995729,0.59617 -2.150319,0.69171 -0.530986,0.32817 0.234807,0.82758 1.792017,1.16866 2.282245,0.49989 4.778268,1.78966 6.184111,3.1955 2.468005,2.468 3.560785,5.75183 4.223516,12.69174 0.358014,3.74902 0.780511,4.41602 1.078165,1.70209 z m 167.290611,-8.46383 c 0.22868,-0.22867 0.41578,-0.57736 0.41578,-0.77485 0,-0.39844 -0.70417,-1.19063 -1.05834,-1.19063 -0.40585,0 -1.05833,0.81915 -1.05833,1.32867 0,0.44134 0.61519,1.02256 1.10558,1.04454 0.0987,0.004 0.36664,-0.17905 0.59531,-0.40773 z m -11.22589,-7.21717 c 0,-0.94322 0.82358,-3.57205 1.35123,-4.31306 0.30101,-0.42274 1.13216,-1.06499 1.84699,-1.42722 0.71483,-0.36223 1.2997,-0.72036 1.2997,-0.79584 0,-0.0755 -0.50602,-0.3557 -1.12448,-0.62272 -0.61847,-0.26701 -1.32829,-0.71361 -1.5774,-0.99245 -0.67456,-0.75507 -1.46332,-2.7024 -1.67241,-4.12891 -0.10158,-0.69302 -0.29001,-1.32512 -0.41874,-1.40468 -0.12873,-0.0796 -0.23406,-0.0859 -0.23406,-0.014 0,0.0718 -0.1829,1.00159 -0.40645,2.06613 -0.51051,2.43109 -1.32572,3.68657 -2.88338,4.44062 -0.66444,0.32165 -1.20808,0.67035 -1.20808,0.77488 0,0.10454 0.48432,0.40375 1.07627,0.66492 1.5024,0.66285 2.50992,2.16935 3.03787,4.54241 0.24012,1.07928 0.54376,1.89609 0.67476,1.81513 0.131,-0.081 0.23818,-0.35329 0.23818,-0.60517 z m -14.2875,-16.70872 c 0.29104,-0.29104 0.52917,-0.64823 0.52917,-0.79375 0,-0.3117 -0.96621,-1.32292 -1.26405,-1.32292 -0.44564,0 -1.38179,0.8475 -1.38179,1.25094 0,0.53574 0.75861,1.3949 1.23164,1.3949 0.19572,0 0.59399,-0.23813 0.88503,-0.52917 z M 12.032961,156.01618 c 0.415348,-0.63391 0.417075,-0.73922 0.02277,-1.38907 -0.536087,-0.88351 -0.910029,-0.88853 -1.437461,-0.0193 -0.380552,0.62718 -0.376647,0.74233 0.0471,1.38906 0.576409,0.87971 0.801727,0.88289 1.367586,0.0193 z m 82.493665,0.10733 c 1.354237,-0.34116 2.65763,-1.66496 3.093146,-3.14158 0.384778,-1.30458 0.474867,-5.65075 0.149235,-7.19957 -0.27143,-1.29101 -1.495571,-2.67087 -2.850374,-3.21296 -1.472811,-0.5893 -4.552857,-0.80309 -6.450184,-0.44772 -3.237785,0.60644 -4.600269,2.3523 -4.833335,6.19334 -0.240223,3.959 0.63935,6.46103 2.633926,7.49247 1.561854,0.80766 5.680341,0.96528 8.257586,0.31602 z m 20.023624,0.0249 c 1.17651,-0.29715 2.23479,-1.10258 2.74494,-2.0891 1.24217,-2.40209 1.05672,-8.21787 -0.31958,-10.02252 -1.15119,-1.50947 -2.65661,-2.01293 -6.02884,-2.01623 -2.51938,-0.002 -3.07913,0.0802 -4.16615,0.61557 -2.4017,1.18276 -3.25611,3.26389 -3.05214,7.43421 0.14645,2.99432 0.74424,4.42741 2.2672,5.43526 1.61787,1.07066 5.6585,1.37428 8.55457,0.64281 z m -39.691385,-0.27723 c 2.361254,-1.01578 3.303089,-3.82358 2.855248,-8.51205 -0.226421,-2.37041 -0.721779,-3.40957 -2.041703,-4.28305 -1.966051,-1.30107 -6.682042,-1.52721 -9.1434,-0.43843 -2.294669,1.01504 -3.159636,2.86658 -3.171276,6.78839 -0.01059,3.56929 0.819384,5.50488 2.706096,6.31091 1.3771,0.58832 1.713118,0.63571 4.749521,0.66986 2.248247,0.0253 2.961017,-0.0691 4.045514,-0.53563 z m 59.850765,0.24571 c 1.45223,-0.43509 2.68032,-1.72457 3.05334,-3.20594 0.35869,-1.42449 0.39166,-5.96137 0.0539,-7.41705 -0.54955,-2.36844 -2.70431,-3.47619 -6.76176,-3.47619 -5.48199,0 -7.38864,1.87641 -7.39329,7.27604 -0.004,4.20557 1.14289,6.23318 3.89418,6.88686 1.37283,0.32617 5.98956,0.28505 7.15363,-0.0637 z m 66.52637,-6.28665 c 0.24974,-0.39989 0.25468,-0.67812 0.0212,-1.19062 -0.38033,-0.83474 -0.62395,-0.84093 -1.15572,-0.0293 -0.3513,0.53615 -0.36337,0.72845 -0.0747,1.19062 0.43102,0.69017 0.79114,0.69891 1.20929,0.0293 z m -32.52791,-10.99278 c 0.48801,-3.13899 1.6515,-4.86465 3.91854,-5.81188 0.49175,-0.20547 0.8941,-0.44342 0.8941,-0.52877 0,-0.0854 -0.50602,-0.37542 -1.12448,-0.64458 -2.14831,-0.93495 -3.35308,-2.99349 -3.77902,-6.45706 -0.10424,-0.84772 -0.28025,-1.44303 -0.39112,-1.32292 -0.11087,0.12011 -0.33915,1.05181 -0.5073,2.07046 -0.44184,2.67662 -1.38657,4.47906 -2.77377,5.29202 -0.62045,0.36361 -1.32599,0.6611 -1.56787,0.6611 -0.87634,0 -0.38524,0.67612 0.9609,1.32292 1.91853,0.92182 2.757,2.22006 3.30354,5.11504 0.23812,1.26131 0.5059,2.29329 0.59506,2.29329 0.0891,0 0.3013,-0.89533 0.47142,-1.98962 z m -129.737628,-1.4393 c 0.313815,-0.34676 0.414831,-0.73529 0.304976,-1.17299 -0.337373,-1.3442 -2.279703,-1.06732 -2.279703,0.32497 0,1.33719 1.103266,1.81098 1.974727,0.84802 z m 35.463813,-0.1246 c 2.48898,-1.04254 3.388834,-2.92338 3.364658,-7.03267 -0.03152,-5.35756 -1.998269,-7.09566 -7.717456,-6.82027 -4.389525,0.21138 -5.973211,1.45815 -6.627947,5.21792 -0.591763,3.39816 0.380475,7.0195 2.16805,8.07545 2.064217,1.21936 6.556491,1.5046 8.812695,0.55957 z m 19.531867,0.20121 c 3.014065,-0.84571 4.016049,-2.68461 4.016049,-7.37053 0,-3.34244 -0.660428,-4.8959 -2.5278,-5.94591 -1.065315,-0.59901 -1.463607,-0.66145 -4.219075,-0.66145 -3.497629,0 -5.115057,0.45761 -6.207908,1.75639 -2.242427,2.66498 -1.822693,9.60086 0.691387,11.42481 1.608539,1.16699 5.565355,1.54922 8.247347,0.79669 z m 20.610438,-0.0743 c 2.48348,-0.75188 3.50986,-2.77602 3.49479,-6.89215 -0.0133,-3.62116 -0.82288,-5.4811 -2.83993,-6.52415 -1.12445,-0.58148 -4.75442,-0.76478 -6.96743,-0.35183 -1.55384,0.28994 -1.97242,0.49502 -2.90754,1.42453 -1.34461,1.33654 -1.79788,3.13675 -1.63701,6.50156 0.17459,3.65168 1.3999,5.33195 4.37609,6.00097 1.69436,0.38086 4.9628,0.30072 6.48103,-0.15893 z m 20.26603,-0.15656 c 1.38939,-0.55592 2.58395,-1.90333 2.97767,-3.35867 0.43779,-1.61825 0.20039,-6.71075 -0.36294,-7.78532 -1.04363,-1.99078 -3.43345,-2.87278 -7.24391,-2.67347 -3.41662,0.17871 -4.69361,0.83146 -5.74962,2.93898 -0.68399,1.36506 -0.77308,1.8249 -0.79375,4.09704 -0.0172,1.8903 0.1032,2.88722 0.46055,3.81336 0.65226,1.69051 2.20946,3.00077 3.97747,3.34674 1.83968,0.36 5.38691,0.16056 6.73453,-0.37866 z M 15.937734,126.47263 c 0.212249,-1.41538 0.889328,-2.46642 2.039433,-3.16584 l 0.890739,-0.54169 -0.659002,-0.42786 c -1.206703,-0.78346 -1.777653,-1.60679 -2.228485,-3.21354 -0.48434,-1.72618 -0.78939,-1.84823 -1.022901,-0.40927 -0.234574,1.44551 -0.985114,2.78685 -1.793181,3.20472 -1.14113,0.5901 -1.144069,0.84358 -0.01802,1.55442 1.021678,0.64496 1.580119,1.66484 2.010704,3.67215 0.215814,1.00609 0.575395,0.69608 0.780715,-0.67309 z m 23.467787,-9.5045 c 0.822577,-4.84328 2.020346,-6.64452 5.453542,-8.20121 0.913919,-0.41439 1.661672,-0.80818 1.661672,-0.87508 0,-0.0669 -0.866652,-0.52207 -1.925893,-1.01146 -3.259658,-1.50606 -4.533986,-3.65139 -5.2174,-8.783502 -0.564236,-4.237144 -0.786854,-4.257945 -1.41585,-0.132292 -0.920143,6.035324 -2.095254,7.861934 -5.943534,9.238754 -0.682017,0.244 -1.221581,0.55706 -1.199033,0.69567 0.02255,0.13862 0.707522,0.51021 1.522162,0.82575 3.339323,1.29347 4.859893,3.50909 5.598472,8.15753 0.683182,4.2998 0.749507,4.30368 1.465862,0.0858 z m 34.973672,1.4795 c 1.442978,-0.49167 2.686346,-1.78743 3.081881,-3.21175 0.364472,-1.31246 0.356257,-6.00756 -0.01284,-7.337 -0.382268,-1.37689 -1.704224,-2.66282 -3.162234,-3.07605 -1.767568,-0.50098 -5.671521,-0.43785 -7.313869,0.11826 -2.384427,0.80737 -3.367894,2.40231 -3.692356,5.98808 -0.359773,3.97599 1.197923,7.03182 3.910949,7.67237 1.633469,0.38566 5.871205,0.29493 7.188467,-0.15391 z m 20.750766,-0.25504 c 1.610298,-0.80245 2.061052,-1.42441 2.626322,-3.62383 0.49681,-1.93306 0.365947,-5.66091 -0.249475,-7.10671 -1.085313,-2.54971 -4.829156,-3.69291 -9.123272,-2.78584 -3.482727,0.73568 -4.540586,2.15677 -4.762412,6.39766 -0.219949,4.20501 1.016693,6.79521 3.567246,7.47174 0.552332,0.1465 2.260784,0.27867 3.796561,0.29371 2.493388,0.0244 2.937136,-0.0448 4.14503,-0.64673 z m 20.314731,-10e-4 c 1.35827,-0.69665 2.40252,-2.64937 2.64895,-4.95346 0.21671,-2.02626 -0.24257,-5.53267 -0.86206,-6.58137 -1.02602,-1.73693 -4.65552,-2.6548 -8.2839,-2.09494 -3.70892,0.57229 -5.01069,2.16254 -5.22282,6.38026 -0.21876,4.34947 0.83592,6.72597 3.33598,7.51691 1.91401,0.60553 6.99804,0.44338 8.38385,-0.2674 z m 18.97564,0.39888 c 0.54118,-0.1503 1.34913,-0.58054 1.79544,-0.95608 1.43482,-1.20732 1.68028,-2.00047 1.78852,-5.77915 0.0912,-3.18458 0.053,-3.52785 -0.51492,-4.63021 -0.49454,-0.95986 -0.91929,-1.34338 -2.19155,-1.97881 -1.42453,-0.71147 -1.82366,-0.78749 -4.10104,-0.78113 -3.2497,0.009 -4.63576,0.41637 -5.88632,1.72968 -1.25297,1.31585 -1.62731,2.65846 -1.61697,5.79954 0.0125,3.81344 1.04598,5.69217 3.56304,6.47738 1.3775,0.42972 5.78129,0.50274 7.1638,0.11878 z M 74.963442,99.282388 c 1.08436,-0.537988 1.454122,-0.915383 2.05052,-2.09285 0.670519,-1.323802 0.727149,-1.676696 0.721794,-4.497916 -0.0065,-3.420202 -0.404067,-4.761887 -1.717129,-5.794742 -1.687232,-1.327176 -5.684167,-1.766624 -8.607544,-0.946366 -2.462634,0.69098 -3.43879,1.915246 -3.972981,4.982797 -0.4955,2.845374 0.187087,6.354105 1.470724,7.560019 1.188988,1.116997 3.151902,1.60807 6.085866,1.52254 2.185189,-0.06371 2.876155,-0.191408 3.96875,-0.733482 z m 20.250009,-0.01555 c 2.215702,-1.223181 3.093974,-3.608998 2.811566,-7.637595 -0.210488,-3.002653 -0.909917,-4.378824 -2.691632,-5.29596 -1.165357,-0.599866 -1.617683,-0.671826 -4.222965,-0.671826 -4.624066,0 -6.278401,0.927457 -7.178757,4.024572 -0.304417,1.047159 -0.398278,2.175622 -0.323137,3.885009 0.223162,5.076806 2.053819,6.586782 7.778706,6.416076 2.231003,-0.06652 2.854656,-0.183924 3.826219,-0.720276 z m 19.834359,0.20758 c 2.12933,-0.931935 2.98476,-2.798619 2.99563,-6.53692 0.009,-2.995264 -0.35936,-4.453644 -1.43248,-5.675861 -1.09446,-1.246514 -2.27397,-1.586347 -5.5319,-1.593814 -5.81909,-0.01334 -7.61285,1.918541 -7.36939,7.936855 0.15265,3.773814 1.28888,5.497143 4.08573,6.196872 1.48818,0.37232 6.13297,0.16281 7.25241,-0.327132 z m 20.27868,-0.211453 c 1.99705,-0.989962 2.57429,-2.260254 2.6964,-5.933753 0.11584,-3.485054 -0.21244,-4.934073 -1.38303,-6.104664 -1.58645,-1.586454 -5.42806,-2.155187 -8.73662,-1.293418 -2.05257,0.534627 -2.88155,1.173185 -3.55483,2.738276 -1.51545,3.522752 -0.77921,8.807829 1.42849,10.254368 2.03055,1.330466 7.18085,1.513396 9.54959,0.339191 z M 61.363453,86.57356 c 0.286238,-0.153189 0.973326,-1.258813 1.526863,-2.456942 0.99156,-2.146228 1.762945,-3.093311 4.356833,-5.349187 1.328546,-1.155422 1.596702,-2.098179 0.818228,-2.876653 -0.623927,-0.623927 -1.701714,-0.505343 -3.479003,0.382779 -3.004494,1.501363 -5.320022,4.75319 -5.565917,7.81653 -0.121852,1.518018 -0.08618,1.648053 0.600211,2.187968 0.829474,0.652465 1.016535,0.684183 1.742785,0.295505 z M 73.508234,60.414274 c 0,-0.458523 -0.481473,-1.078853 -0.837358,-1.078853 -0.111297,0 -0.335099,0.24803 -0.497338,0.551177 -0.387398,0.72386 0.401336,1.746149 0.977982,1.267575 0.196192,-0.162825 0.356714,-0.495779 0.356714,-0.739899 z m 30.956246,-0.573799 c 0,-0.941346 0.79173,-2.476196 1.64173,-3.182657 l 0.83408,-0.693228 -1.08167,-1.028961 c -0.78078,-0.742739 -1.12996,-1.322685 -1.2553,-2.084896 -0.361,-2.195252 -0.5423,-2.226137 -1.15852,-0.197362 -0.4601,1.514758 -0.76479,2.04286 -1.50393,2.606627 l -0.92693,0.707007 1.02644,0.956604 c 0.5861,0.546225 1.1646,1.410624 1.34849,2.014937 0.17713,0.582084 0.3717,1.214708 0.43238,1.405833 0.1578,0.497038 0.64323,0.116756 0.64323,-0.503904 z"
         id="path4" /><path
         style="fill:#a7488f"
         d="m 98.050017,256.98886 c -1.708946,-0.11884 -3.383588,-0.28545 -3.721428,-0.37024 -0.337841,-0.0848 -2.503836,-2.15172 -4.813324,-4.59317 -2.309488,-2.44145 -8.671564,-9.12677 -14.137946,-14.85627 -5.466382,-5.7295 -10.534189,-11.10631 -11.261793,-11.94845 -0.727604,-0.84215 -1.918229,-1.85955 -2.645834,-2.26089 -5.086663,-2.80578 -7.665799,-5.8625 -9.043531,-10.71817 -0.459555,-1.61965 -0.481468,-4.60498 -0.481468,-65.59375 0,-53.64139 0.05896,-64.130437 0.367371,-65.352083 1.277696,-5.061138 5.38613,-9.396848 10.407311,-10.983039 l 2.084926,-0.658627 H 104.7004 c 39.01101,0 39.94193,0.01172 41.96217,0.52841 1.13633,0.290626 2.85202,0.964822 3.81263,1.498213 2.22609,1.236063 4.9285,3.972414 6.09275,6.169293 0.49863,0.940882 1.80832,2.669975 2.91042,3.84243 9.12454,9.707021 19.00786,20.280593 26.33883,28.178323 4.79527,5.16598 10.44941,11.23817 12.56475,13.49374 7.73111,8.24364 14.70349,15.92894 15.07899,16.62082 0.52778,0.97248 0.70062,10.30678 0.2962,15.99647 -1.05435,14.83335 -4.70936,28.21797 -11.22369,41.10116 -10.00533,19.78722 -24.73458,35.17216 -44.35855,46.33324 -12.15033,6.91046 -27.1062,11.60855 -41.93646,13.17351 -4.56507,0.48172 -14.01758,0.68913 -18.188423,0.39908 z m 30.769533,-16.03677 c 0.23547,-1.14412 0.71196,-1.90723 1.30923,-2.0968 0.75156,-0.23853 0.65598,-0.85382 -0.2512,-1.61717 -0.51387,-0.43239 -0.8558,-1.03687 -1.00056,-1.76885 -0.27541,-1.39268 -0.92373,-1.49825 -1.14188,-0.18594 -0.19893,1.19671 -0.66102,2.0338 -1.31631,2.38449 -0.67536,0.36145 -0.67075,0.97257 0.009,1.1883 0.58426,0.18544 1.32001,1.40655 1.32001,2.19081 0,1.13809 0.83316,1.06436 1.07174,-0.0948 z m -0.17287,-31.06521 c 4.54864,-0.57693 7.80763,-3.23671 9.03659,-7.37506 0.34132,-1.14938 0.39235,-3.16387 0.32764,-12.93608 -0.0755,-11.4065 -0.0856,-11.5968 -0.69063,-13.09517 -1.25386,-3.10501 -4.49246,-5.64778 -8.01245,-6.29094 -0.96514,-0.17634 -10.61618,-0.24519 -27.64895,-0.19724 -23.953794,0.0674 -26.279142,0.11221 -27.501158,0.52959 -2.946788,1.00647 -5.33182,3.2837 -6.516267,6.22174 -0.601975,1.4932 -0.615068,1.72818 -0.69433,12.46055 -0.05224,7.0732 0.01943,11.42081 0.202802,12.30312 0.963592,4.63632 4.519904,7.89749 9.120308,8.36339 2.995708,0.30339 49.997485,0.31783 52.376445,0.0161 z m 47.2522,-5.68272 c 0.16639,-0.50416 0.62211,-1.15019 1.01271,-1.43562 l 0.71018,-0.51895 -0.70467,-0.74719 c -0.38756,-0.41096 -0.84071,-1.26091 -1.00699,-1.88879 -0.35622,-1.34507 -0.81574,-1.33678 -1.19686,0.0216 -0.14726,0.52484 -0.62464,1.32779 -1.06086,1.78432 l -0.79312,0.83005 0.73575,0.53758 c 0.40467,0.29568 0.90461,0.9417 1.11098,1.43562 0.47705,1.14173 0.81166,1.13651 1.19288,-0.0186 z m 24.34476,-20.51458 c 0.60022,-0.60021 0.64438,-0.87785 0.25528,-1.60489 -0.55819,-1.04298 -2.37194,-0.43602 -2.37194,0.79375 0,0.35661 0.97093,1.34031 1.32291,1.34031 0.14552,0 0.50271,-0.23813 0.79375,-0.52917 z m -11.1125,-7.41088 c 0,-1.01648 0.77477,-3.45956 1.35641,-4.27716 0.27695,-0.3893 1.09709,-0.97607 1.82253,-1.30393 0.72544,-0.32786 1.31856,-0.72371 1.31804,-0.87967 -5.2e-4,-0.15596 -0.62121,-0.58122 -1.37932,-0.94502 -0.75811,-0.36381 -1.58886,-0.95912 -1.8461,-1.32292 -0.40962,-0.5793 -0.95345,-2.44507 -1.41291,-4.84744 -0.23915,-1.25048 -0.76469,-0.64278 -1.11564,1.29005 -0.52926,2.91488 -1.24557,4.08376 -3.04248,4.96468 -0.83675,0.41021 -1.52136,0.84052 -1.52136,0.95624 0,0.11573 0.51784,0.40818 1.15076,0.64989 0.63292,0.24171 1.40101,0.70586 1.70687,1.03143 0.78166,0.83204 1.56565,2.73151 1.77046,4.28952 0.2655,2.01961 0.36465,2.21469 0.81477,1.60308 0.20788,-0.28248 0.37797,-0.82641 0.37797,-1.20875 z m -14.34041,-16.45453 c 0.17462,-0.17463 0.3175,-0.62707 0.3175,-1.00542 0,-0.92377 -0.45674,-1.32292 -1.5138,-1.32292 -1.10806,0 -1.66083,0.92945 -1.18018,1.98438 0.23342,0.5123 0.49955,0.66146 1.18018,0.66146 0.48334,0 1.02167,-0.14288 1.1963,-0.3175 z m -80.264104,-3.70066 c 1.354237,-0.34116 2.65763,-1.66496 3.093146,-3.14158 0.384778,-1.30458 0.474867,-5.65075 0.149235,-7.19957 -0.27143,-1.29101 -1.495571,-2.67087 -2.850374,-3.21296 -1.472811,-0.5893 -4.552857,-0.80309 -6.450184,-0.44772 -3.237785,0.60644 -4.600269,2.3523 -4.833335,6.19334 -0.240223,3.959 0.63935,6.46103 2.633926,7.49247 1.561854,0.80766 5.680341,0.96528 8.257586,0.31602 z m 20.023624,0.0249 c 1.17651,-0.29715 2.23479,-1.10258 2.74494,-2.0891 1.24217,-2.40209 1.05672,-8.21787 -0.31958,-10.02252 -1.15119,-1.50947 -2.65661,-2.01293 -6.02884,-2.01623 -2.51938,-0.002 -3.07913,0.0802 -4.16615,0.61557 -2.4017,1.18276 -3.25611,3.26389 -3.05214,7.43421 0.14645,2.99432 0.74424,4.42741 2.2672,5.43526 1.61787,1.07066 5.6585,1.37428 8.55457,0.64281 z m -39.691385,-0.27723 c 2.361254,-1.01578 3.303089,-3.82358 2.855248,-8.51205 -0.226421,-2.37041 -0.721779,-3.40957 -2.041703,-4.28305 -1.966051,-1.30107 -6.682042,-1.52721 -9.1434,-0.43843 -2.294669,1.01504 -3.159636,2.86658 -3.171276,6.78839 -0.01059,3.56929 0.819384,5.50488 2.706096,6.31091 1.3771,0.58832 1.713118,0.63571 4.749521,0.66986 2.248247,0.0253 2.961017,-0.0691 4.045514,-0.53563 z m 59.850765,0.24571 c 1.45223,-0.43509 2.68032,-1.72457 3.05334,-3.20594 0.35869,-1.42449 0.39166,-5.96137 0.0539,-7.41705 -0.54955,-2.36844 -2.70431,-3.47619 -6.76176,-3.47619 -5.48199,0 -7.38864,1.87641 -7.39329,7.27604 -0.004,4.20557 1.14289,6.23318 3.89418,6.88686 1.37283,0.32617 5.98956,0.28505 7.15363,-0.0637 z m 66.65555,-6.04737 c 0.44188,-0.77642 0.43905,-0.84961 -0.0715,-1.85041 -0.29238,-0.57312 -0.57627,-1.04203 -0.63087,-1.04203 -0.0546,0 -0.33925,0.48505 -0.63256,1.07788 -0.50457,1.01983 -0.50962,1.11949 -0.0938,1.85041 0.55769,0.98029 0.85466,0.97284 1.42874,-0.0358 z m -32.77565,-9.044 c 1.01508,-5.70283 1.39226,-6.45251 3.8192,-7.59118 0.75712,-0.35522 1.37658,-0.78553 1.37658,-0.95624 0,-0.17071 -0.53023,-0.51287 -1.17829,-0.76037 -2.17339,-0.83002 -3.39894,-2.94263 -3.79611,-6.54372 -0.13464,-1.22075 -0.2915,-1.67713 -0.57644,-1.67713 -0.29053,0 -0.47673,0.59687 -0.72221,2.31507 -0.51029,3.57182 -1.70073,5.34799 -4.05762,6.05413 -0.57553,0.17243 -1.04641,0.44515 -1.04641,0.60603 0,0.16089 0.7026,0.60305 1.56133,0.98258 2.01309,0.88973 2.81201,2.0528 3.35584,4.88546 0.62161,3.2377 0.63344,3.28068 0.90366,3.28068 0.13998,0 0.30219,-0.26789 0.36047,-0.59531 z m -94.155255,-3.75196 c 2.48898,-1.04254 3.388834,-2.92338 3.364658,-7.03267 -0.03152,-5.35756 -1.998269,-7.09566 -7.717456,-6.82027 -4.389525,0.21138 -5.973211,1.45815 -6.627947,5.21792 -0.591763,3.39816 0.380475,7.0195 2.16805,8.07545 2.064217,1.21936 6.556491,1.5046 8.812695,0.55957 z m 19.531867,0.20121 c 3.014065,-0.84571 4.016049,-2.68461 4.016049,-7.37053 0,-3.34244 -0.660428,-4.8959 -2.5278,-5.94591 -1.065315,-0.59901 -1.463607,-0.66145 -4.219075,-0.66145 -3.497629,0 -5.115057,0.45761 -6.207908,1.75639 -2.242427,2.66498 -1.822693,9.60086 0.691387,11.42481 1.608539,1.16699 5.565355,1.54922 8.247347,0.79669 z m 20.610438,-0.0743 c 2.48348,-0.75188 3.50986,-2.77602 3.49479,-6.89215 -0.0133,-3.62116 -0.82288,-5.4811 -2.83993,-6.52415 -1.12445,-0.58148 -4.75442,-0.76478 -6.96743,-0.35183 -1.55384,0.28994 -1.97242,0.49502 -2.90754,1.42453 -1.34461,1.33654 -1.79788,3.13675 -1.63701,6.50156 0.17459,3.65168 1.3999,5.33195 4.37609,6.00097 1.69436,0.38086 4.9628,0.30072 6.48103,-0.15893 z m 20.26603,-0.15656 c 1.38939,-0.55592 2.58395,-1.90333 2.97767,-3.35867 0.43779,-1.61825 0.20039,-6.71075 -0.36294,-7.78532 -1.04363,-1.99078 -3.43345,-2.87278 -7.24391,-2.67347 -3.41662,0.17871 -4.69361,0.83146 -5.74962,2.93898 -0.68399,1.36506 -0.77308,1.8249 -0.79375,4.09704 -0.0172,1.8903 0.1032,2.88722 0.46055,3.81336 0.65226,1.69051 2.20946,3.00077 3.97747,3.34674 1.83968,0.36 5.38691,0.16056 6.73453,-0.37866 z M 74.379193,118.44763 c 1.442978,-0.49167 2.686346,-1.78743 3.081881,-3.21175 0.364472,-1.31246 0.356257,-6.00756 -0.01284,-7.337 -0.382268,-1.37689 -1.704224,-2.66282 -3.162234,-3.07605 -1.767568,-0.50098 -5.671521,-0.43785 -7.313869,0.11826 -2.384427,0.80737 -3.367894,2.40231 -3.692356,5.98808 -0.359773,3.97599 1.197923,7.03182 3.910949,7.67237 1.633469,0.38566 5.871205,0.29493 7.188467,-0.15391 z m 20.750766,-0.25504 c 1.610298,-0.80245 2.061052,-1.42441 2.626322,-3.62383 0.49681,-1.93306 0.365947,-5.66091 -0.249475,-7.10671 -1.085313,-2.54971 -4.829156,-3.69291 -9.123272,-2.78584 -3.482727,0.73568 -4.540586,2.15677 -4.762412,6.39766 -0.219949,4.20501 1.016693,6.79521 3.567246,7.47174 0.552332,0.1465 2.260784,0.27867 3.796561,0.29371 2.493388,0.0244 2.937136,-0.0448 4.14503,-0.64673 z m 20.314731,-10e-4 c 1.35827,-0.69665 2.40252,-2.64937 2.64895,-4.95346 0.21671,-2.02626 -0.24257,-5.53267 -0.86206,-6.58137 -1.02602,-1.73693 -4.65552,-2.6548 -8.2839,-2.09494 -3.70892,0.57229 -5.01069,2.16254 -5.22282,6.38026 -0.21876,4.34947 0.83592,6.72597 3.33598,7.51691 1.91401,0.60553 6.99804,0.44338 8.38385,-0.2674 z m 18.97564,0.39888 c 0.54118,-0.1503 1.34913,-0.58054 1.79544,-0.95608 1.43482,-1.20732 1.68028,-2.00047 1.78852,-5.77915 0.0912,-3.18458 0.053,-3.52785 -0.51492,-4.63021 -0.49454,-0.95986 -0.91929,-1.34338 -2.19155,-1.97881 -1.42453,-0.71147 -1.82366,-0.78749 -4.10104,-0.78113 -3.2497,0.009 -4.63576,0.41637 -5.88632,1.72968 -1.25297,1.31585 -1.62731,2.65846 -1.61697,5.79954 0.0125,3.81344 1.04598,5.69217 3.56304,6.47738 1.3775,0.42972 5.78129,0.50274 7.1638,0.11878 z M 74.963442,99.282388 c 1.08436,-0.537988 1.454122,-0.915383 2.05052,-2.09285 0.670519,-1.323802 0.727149,-1.676696 0.721794,-4.497916 -0.0065,-3.420202 -0.404067,-4.761887 -1.717129,-5.794742 -1.687232,-1.327176 -5.684167,-1.766624 -8.607544,-0.946366 -2.462634,0.69098 -3.43879,1.915246 -3.972981,4.982797 -0.4955,2.845374 0.187087,6.354105 1.470724,7.560019 1.188988,1.116997 3.151902,1.60807 6.085866,1.52254 2.185189,-0.06371 2.876155,-0.191408 3.96875,-0.733482 z m 20.250009,-0.01555 c 2.215702,-1.223181 3.093974,-3.608998 2.811566,-7.637595 -0.210488,-3.002653 -0.909917,-4.378824 -2.691632,-5.29596 -1.165357,-0.599866 -1.617683,-0.671826 -4.222965,-0.671826 -4.624066,0 -6.278401,0.927457 -7.178757,4.024572 -0.304417,1.047159 -0.398278,2.175622 -0.323137,3.885009 0.223162,5.076806 2.053819,6.586782 7.778706,6.416076 2.231003,-0.06652 2.854656,-0.183924 3.826219,-0.720276 z m 19.834359,0.20758 c 2.12933,-0.931935 2.98476,-2.798619 2.99563,-6.53692 0.009,-2.995264 -0.35936,-4.453644 -1.43248,-5.675861 -1.09446,-1.246514 -2.27397,-1.586347 -5.5319,-1.593814 -5.81909,-0.01334 -7.61285,1.918541 -7.36939,7.936855 0.15265,3.773814 1.28888,5.497143 4.08573,6.196872 1.48818,0.37232 6.13297,0.16281 7.25241,-0.327132 z m 20.27868,-0.211453 c 1.99705,-0.989962 2.57429,-2.260254 2.6964,-5.933753 0.11584,-3.485054 -0.21244,-4.934073 -1.38303,-6.104664 -1.58645,-1.586454 -5.42806,-2.155187 -8.73662,-1.293418 -2.05257,0.534627 -2.88155,1.173185 -3.55483,2.738276 -1.51545,3.522752 -0.77921,8.807829 1.42849,10.254368 2.03055,1.330466 7.18085,1.513396 9.54959,0.339191 z M 61.363453,86.57356 c 0.286238,-0.153189 0.973326,-1.258813 1.526863,-2.456942 0.99156,-2.146228 1.762945,-3.093311 4.356833,-5.349187 1.328546,-1.155422 1.596702,-2.098179 0.818228,-2.876653 -0.623927,-0.623927 -1.701714,-0.505343 -3.479003,0.382779 -3.004494,1.501363 -5.320022,4.75319 -5.565917,7.81653 -0.121852,1.518018 -0.08618,1.648053 0.600211,2.187968 0.829474,0.652465 1.016535,0.684183 1.742785,0.295505 z"
         id="path3" /><path
         style="fill:#693c89"
         d="m 64.247817,223.53997 c -4.137604,-0.92967 -8.375923,-4.31332 -10.283044,-8.20944 -1.758828,-3.59316 -1.637808,1.76734 -1.560742,-69.13189 l 0.06983,-64.241345 0.615108,-1.704063 c 0.733805,-2.032893 2.495519,-4.800449 3.9153,-6.150721 1.391439,-1.323318 3.84219,-2.757914 5.920633,-3.465762 l 1.719791,-0.585703 39.687497,-0.07151 c 44.1823,-0.07961 41.62314,-0.176631 45.44313,1.722844 3.53022,1.755386 6.81188,5.723442 8.04339,9.725748 0.46916,1.524716 0.48848,4.104086 0.48848,65.219792 0,59.95488 -0.027,63.73167 -0.46648,65.35208 -1.44393,5.3235 -4.96886,9.10152 -10.44089,11.19059 l -1.52805,0.58336 -40.08437,0.0465 c -31.001084,0.036 -40.41413,-0.0276 -41.539582,-0.28047 z m 67.801733,-14.10682 c 2.38422,-1.12938 4.42336,-3.08931 5.38885,-5.17953 l 0.76046,-1.64633 v -12.43542 c 0,-12.39489 -0.002,-12.44037 -0.614,-13.95588 -0.89707,-2.22149 -2.83845,-4.21394 -5.2834,-5.42242 l -2.01228,-0.99461 -26.86912,-0.0826 c -19.944319,-0.0613 -27.244159,-0.002 -28.324327,0.23007 -3.288734,0.70664 -6.014449,2.89264 -7.489524,6.00655 l -0.84485,1.78349 v 12.30312 12.30313 l 0.84485,1.78349 c 1.441143,3.04227 4.355039,5.37349 7.501511,6.00147 0.649851,0.1297 13.286368,0.21668 28.16614,0.19388 l 26.9875,-0.0413 z M 75.119926,155.96678 c 1.117126,-0.5836 1.546432,-1.00554 2.080734,-2.04507 0.628042,-1.22191 0.6728,-1.5586 0.667265,-5.01938 -0.0068,-4.22617 -0.243132,-4.97503 -1.919674,-6.08178 -1.379452,-0.91062 -3.452668,-1.28814 -6.263286,-1.1405 -4.65977,0.24478 -6.416723,2.03457 -6.694803,6.81995 -0.180115,3.09953 0.262764,5.0675 1.43155,6.36121 1.316731,1.45746 2.38073,1.74803 6.608913,1.80484 2.455782,0.033 2.800374,-0.0259 4.089301,-0.69927 z m 19.373842,0.41446 c 1.475414,-0.44205 2.956672,-1.92153 3.387378,-3.38332 0.439001,-1.48995 0.436446,-6.66056 -0.0039,-7.99042 -0.386599,-1.16742 -1.712277,-2.40035 -3.11346,-2.89564 -0.639696,-0.22612 -2.196404,-0.35873 -4.210921,-0.35873 -3.091637,0 -3.238096,0.026 -4.483428,0.79611 -2.246163,1.38901 -3.339755,4.75226 -2.8035,8.62195 0.431395,3.113 1.461712,4.56328 3.662335,5.15513 1.62504,0.43704 6.179764,0.47011 7.565544,0.0549 z m 20.098262,0.0404 c 2.94572,-0.81803 4.18446,-3.93906 3.61667,-9.11221 -0.34071,-3.1042 -0.90493,-4.08606 -2.8676,-4.99025 -1.03688,-0.47768 -1.7172,-0.56205 -4.54674,-0.56387 -3.2468,-0.002 -3.35898,0.0174 -4.63021,0.80246 -2.30001,1.42046 -3.24505,4.25859 -2.78475,8.36312 0.37618,3.35431 1.59633,5.01765 4.03191,5.49639 1.66231,0.32675 6.01031,0.32939 7.18072,0.004 z m 21.08996,-0.51959 c 1.79501,-1.00051 2.47084,-2.42203 2.6048,-5.47889 0.16989,-3.87635 -0.11986,-5.75914 -1.04917,-6.81756 -1.24902,-1.42256 -2.75011,-1.85302 -6.4471,-1.8488 -2.75544,0.003 -3.31919,0.0803 -4.26619,0.58371 -2.47468,1.31556 -3.41754,3.59843 -3.21588,7.78634 0.19142,3.97526 1.35779,5.75775 4.14967,6.3417 0.52313,0.10942 2.32037,0.17562 3.99386,0.14711 2.69774,-0.046 3.17732,-0.12686 4.23001,-0.71361 z M 74.698858,137.39892 c 1.364884,-0.60845 2.327349,-1.68177 2.907979,-3.24292 0.378175,-1.0168 0.443505,-1.85783 0.353747,-4.55393 -0.106765,-3.20698 -0.134212,-3.33708 -0.909153,-4.30913 -1.386542,-1.73922 -2.373767,-2.06065 -6.329038,-2.06065 -3.157648,0 -3.557805,0.0559 -4.762499,0.66546 -1.098639,0.55589 -1.443696,0.92201 -2.095556,2.22346 -0.63793,1.27365 -0.800427,1.97786 -0.89034,3.85846 -0.17504,3.66113 0.840432,6.2305 2.87909,7.28473 1.83454,0.94868 6.848386,1.02492 8.84577,0.13452 z m 20.328085,-0.0892 c 2.468558,-1.13015 3.223525,-2.83038 3.208606,-7.22597 -0.0088,-2.59179 -0.08733,-3.09073 -0.666314,-4.23333 -0.52876,-1.04348 -0.938148,-1.44064 -2.106069,-2.04318 -1.406201,-0.72547 -1.549019,-0.74484 -4.757017,-0.64522 -4.450295,0.1382 -5.689975,0.75127 -6.849113,3.38718 -1.486486,3.38031 -0.654582,8.70113 1.626212,10.40119 1.758061,1.31042 7.032463,1.50901 9.543695,0.35933 z m 19.832947,0.18805 c 2.37726,-0.81001 3.49932,-3.0302 3.46558,-6.85719 -0.0296,-3.3587 -0.47486,-4.956 -1.68665,-6.05078 -1.31023,-1.18371 -2.44514,-1.48655 -5.57788,-1.48837 -3.11628,-0.002 -4.86533,0.47821 -5.99711,1.6459 -2.67582,2.76075 -2.36257,10.06253 0.52351,12.20267 1.56141,1.15785 6.60725,1.45593 9.27255,0.54777 z m 18.32943,0.39844 c 3.66392,-0.66512 4.94796,-2.33575 5.09968,-6.63505 0.21751,-6.16304 -1.17159,-7.89344 -6.51114,-8.11093 -6.04165,-0.24608 -8.19601,1.49711 -8.47176,6.85489 -0.18666,3.62673 0.8334,6.20503 2.87199,7.25923 0.64308,0.33255 3.07938,0.77226 4.89457,0.88338 0.30069,0.0184 1.25319,-0.0948 2.11666,-0.25152 z M 74.195032,118.74163 c 2.684174,-0.79712 3.819715,-2.92705 3.799595,-7.12691 -0.0211,-4.4054 -0.527106,-5.63696 -2.779139,-6.76419 -1.150414,-0.57582 -1.658648,-0.65549 -4.219582,-0.66146 -3.529546,-0.008 -4.938794,0.37063 -6.247748,1.67959 -1.250786,1.25078 -1.823257,3.14242 -1.823257,6.02465 0,3.81389 1.498776,6.4483 3.896947,6.84968 0.548814,0.0919 1.116907,0.20739 1.262427,0.25675 0.766259,0.25988 4.96346,0.0826 6.110757,-0.25811 z m 21.185189,-0.34384 c 2.15032,-1.12662 2.872167,-2.91824 2.849222,-7.07175 -0.0088,-1.60073 -0.160141,-3.33726 -0.336218,-3.85896 -0.388768,-1.15188 -1.428231,-2.19078 -2.740364,-2.73889 -1.413344,-0.59039 -5.053062,-0.81003 -6.960253,-0.42002 -2.099112,0.42925 -3.158112,1.11365 -4.037237,2.60913 -0.693887,1.18037 -0.725263,1.38827 -0.725263,4.80562 0,3.40706 0.03307,3.62813 0.716761,4.79111 1.274437,2.16786 2.577238,2.62319 7.220739,2.52364 2.398836,-0.0514 3.104156,-0.16391 4.012613,-0.63988 z m 19.006139,0.43738 c 2.27343,-0.62969 3.34457,-2.04877 3.8273,-5.07055 0.35149,-2.20027 -0.0308,-6.20998 -0.70007,-7.34299 -0.28829,-0.48803 -1.05181,-1.08901 -1.92843,-1.5179 -1.32704,-0.64926 -1.72384,-0.71049 -4.63825,-0.71572 -2.90595,-0.005 -3.30321,0.054 -4.50401,0.67143 -2.30359,1.18444 -3.11822,3.03598 -3.09983,7.04543 0.0123,2.68924 0.33769,4.01966 1.2972,5.3046 0.76162,1.01992 1.3275,1.35065 2.81309,1.64411 1.65547,0.32702 5.72487,0.31621 6.933,-0.0184 z m 21.33969,-0.56007 c 0.88622,-0.52098 1.40533,-1.07717 1.85208,-1.98438 0.56166,-1.14057 0.62073,-1.61297 0.62073,-4.96468 0,-4.53961 -0.24962,-5.14852 -2.59135,-6.32119 -1.25542,-0.62867 -1.96471,-0.7878 -3.98178,-0.89331 -5.82383,-0.30462 -8.37583,1.98482 -8.37583,7.51409 0,2.9378 0.4288,4.5081 1.56309,5.72411 1.32234,1.41762 2.76478,1.78934 6.63899,1.71086 2.78005,-0.0563 3.14901,-0.12413 4.27407,-0.7855 z M 75.0199,99.510981 c 1.408749,-0.724947 2.310441,-1.873476 2.751399,-3.504586 0.381723,-1.412002 0.186108,-6.948915 -0.276677,-7.831392 -1.11722,-2.130408 -2.94054,-2.910416 -6.803289,-2.910416 -5.721961,0 -7.634141,1.955028 -7.634141,7.805208 0,2.578944 0.07534,3.059519 0.661459,4.219582 0.363802,0.720041 0.976992,1.538084 1.362645,1.817874 1.148939,0.833551 3.292955,1.234439 6.102145,1.140969 2.103228,-0.07 2.800018,-0.20388 3.836459,-0.737239 z m 19.787291,0.19548 c 2.529949,-1.068626 3.452127,-3.002133 3.417716,-7.165833 -0.02626,-3.177025 -0.389313,-4.603808 -1.438433,-5.652928 -1.28295,-1.28295 -3.019485,-1.705586 -6.465902,-1.573667 -2.63646,0.100916 -3.102992,0.193562 -4.193824,0.832832 -1.574911,0.92296 -2.448318,2.414238 -2.85452,4.873887 -0.535235,3.24097 0.394974,6.908548 2.057947,8.113959 1.649477,1.195629 7.206312,1.530869 9.477016,0.57175 z m 19.386309,0.235976 c 2.47732,-0.735686 3.60757,-2.199719 4.04692,-5.242054 0.27287,-1.889507 -0.10786,-5.68537 -0.68151,-6.794684 -1.03672,-2.004796 -3.24243,-2.774296 -7.42911,-2.591767 -5.11544,0.223022 -6.85393,2.129405 -6.83154,7.491279 0.0126,3.017886 0.41792,4.415771 1.66931,5.75733 0.80695,0.865094 1.29277,1.131244 2.56147,1.403261 2.17334,0.465978 5.05063,0.455888 6.66446,-0.02336 z m 21.20234,-0.457674 c 2.35751,-1.213179 3.05707,-3.075291 2.87278,-7.646882 -0.13943,-3.459088 -0.49318,-4.404554 -2.03732,-5.44515 -1.27916,-0.862022 -2.4916,-1.125007 -5.19432,-1.126669 -5.69713,-0.0035 -7.78708,2.066536 -7.78708,7.712894 0,3.20724 0.97609,5.577379 2.65432,6.445226 2.0999,1.085898 7.43302,1.119938 9.49162,0.06058 z M 61.915912,86.605479 c 0.35743,-0.281155 0.791501,-0.983903 0.964602,-1.561662 0.504349,-1.683364 2.270141,-4.071482 4.008863,-5.421721 1.819792,-1.413196 2.298853,-2.285062 1.850422,-3.36767 -0.60759,-1.466853 -2.165683,-1.502562 -4.727323,-0.108342 -3.43858,1.871509 -6.2095,6.822918 -5.322434,9.510755 0.495279,1.500709 1.971965,1.934962 3.22587,0.94864 z"
         id="path2" /><path
         style="fill:#2c1466"
         d="m 65.703026,223.3703 c -2.285351,-0.24199 -4.091238,-0.91675 -6.283286,-2.34774 -2.33178,-1.5222 -3.929027,-3.27878 -5.110952,-5.62079 -1.620151,-3.21035 -1.973424,-6.05263 -0.407406,-3.27779 1.574823,2.79043 4.181656,4.81503 7.798807,6.05695 1.61521,0.55457 1.773236,0.55706 40.187271,0.63266 42.82718,0.0843 40.32606,0.18027 43.87351,-1.68386 3.18638,-1.67439 5.56974,-4.85971 6.45933,-8.63275 0.57165,-2.4246 0.58994,-125.063329 0.019,-127.756562 -0.83871,-3.956661 -3.47941,-7.552194 -6.8197,-9.285588 -1.55358,-0.806204 -1.61338,-0.869981 -0.89721,-0.956754 1.10358,-0.133711 2.9123,0.374851 5.15639,1.449835 3.74361,1.793296 6.9657,5.931537 7.84344,10.073607 0.56104,2.647539 0.56943,126.830512 0.009,129.475562 -0.61,2.87771 -1.86613,5.14145 -4.11141,7.4094 -2.11033,2.13164 -4.52906,3.52693 -7.28325,4.20148 -1.00786,0.24684 -10.55399,0.33667 -40.08437,0.37721 -21.318799,0.0293 -39.475829,-0.0224 -40.348954,-0.11487 z m 6.085416,-63.19207 c -0.436563,-0.11509 -1.091406,-0.3674 -1.455208,-0.56068 -0.820856,-0.43611 -3.439583,-2.45912 -3.439583,-2.65714 0,-0.08 1.518046,-0.10222 3.373437,-0.0493 3.273423,0.0933 3.416572,0.074 4.82837,-0.65172 2.514729,-1.29272 3.17152,-2.83001 3.1738,-7.42865 8.11e-4,-1.63711 0.106075,-2.97656 0.233919,-2.97656 0.127844,0 0.776409,0.63672 1.441257,1.41493 1.553717,1.81864 1.885386,3.10443 1.694477,6.56902 -0.270043,4.90068 -1.636606,6.26652 -6.453597,6.45014 -1.431717,0.0546 -2.96031,0.005 -3.396872,-0.11003 z m 20.108332,-0.003 c -0.436562,-0.11529 -1.150937,-0.39799 -1.5875,-0.62822 -0.892856,-0.47088 -3.042708,-2.26187 -3.042708,-2.53481 0,-0.0978 1.637109,-0.17782 3.638021,-0.17782 3.50591,0 3.683675,-0.0268 4.895237,-0.73901 0.796805,-0.46838 1.445516,-1.10812 1.771392,-1.74689 0.756013,-1.48191 1.167587,-4.28095 0.962408,-6.54518 -0.106686,-1.17731 -0.0772,-1.94912 0.07447,-1.94912 0.493339,0 2.680736,2.71455 2.972736,3.68915 0.17428,0.58172 0.25739,2.24226 0.20067,4.0097 -0.0871,2.71451 -0.16926,3.14014 -0.81984,4.24813 -1.049959,1.78813 -2.453949,2.40175 -5.729662,2.5042 -1.397812,0.0437 -2.898664,-0.0148 -3.335227,-0.13013 z m 20.108336,0.003 c -0.43657,-0.11511 -1.09141,-0.36825 -1.45521,-0.56253 -0.77806,-0.41549 -3.175,-2.39672 -3.175,-2.62434 0,-0.0864 1.63711,-0.15703 3.63802,-0.15703 3.39187,0 3.71586,-0.0446 4.78844,-0.65861 2.14889,-1.23023 3.11821,-4.1435 2.77329,-8.33502 l -0.174,-2.11447 0.92348,0.79155 c 0.50791,0.43536 1.27157,1.26781 1.69702,1.84989 0.72191,0.98769 0.77949,1.24721 0.86271,3.88799 0.1437,4.5604 -0.88562,6.90893 -3.34125,7.6235 -1.2811,0.37279 -5.52213,0.5668 -6.5375,0.29907 z m 19.64771,-0.13178 c -1.4465,-0.54071 -4.16889,-2.52612 -4.16994,-3.04109 -1.9e-4,-0.0941 1.36713,-0.13106 3.0385,-0.0822 3.58668,0.10483 5.14504,-0.29191 6.45488,-1.64332 1.21034,-1.24876 1.61947,-2.87749 1.61947,-6.44708 0,-1.66249 0.0996,-2.98302 0.2214,-2.93452 0.12178,0.0485 0.77157,0.71156 1.44399,1.47346 1.53978,1.74465 1.85681,2.89911 1.73082,6.30267 -0.18616,5.02899 -1.63795,6.47583 -6.67243,6.64966 -1.84781,0.0638 -2.98346,-0.0222 -3.66669,-0.27756 z m -38.757676,-18.7275 c -1.720529,-0.15482 -2.083608,-0.29447 -3.624866,-1.39429 -0.942051,-0.67224 -1.77893,-1.32921 -1.85973,-1.45995 -0.08412,-0.13611 1.125869,-0.21922 2.831116,-0.19446 3.491201,0.0507 4.701638,-0.25006 6.213076,-1.54379 1.55642,-1.33224 2.057989,-2.93333 2.051557,-6.54889 -0.0028,-1.56435 0.06122,-2.84428 0.142238,-2.84428 0.347642,0 2.635385,2.57893 2.890475,3.25837 0.1538,0.40966 0.27964,2.08495 0.27964,3.72287 0,2.72745 -0.0612,3.09777 -0.72761,4.4009 -0.51653,1.0101 -1.00851,1.56507 -1.695954,1.9131 -1.218464,0.61686 -4.015624,0.91397 -6.499942,0.69042 z m 19.846646,0.038 c -1.41964,-0.15809 -1.8801,-0.36064 -3.36684,-1.481 -0.94726,-0.71383 -1.72525,-1.39955 -1.72888,-1.52384 -0.004,-0.12429 0.93257,-0.14284 2.08043,-0.0412 2.47364,0.21896 4.70296,-0.16259 6.28809,-1.07622 1.94215,-1.1194 2.88388,-4.05644 2.58092,-8.04928 l -0.17064,-2.24896 1.35351,1.31231 c 1.91571,1.8574 2.24222,2.87631 2.10132,6.55742 -0.13293,3.47264 -0.66538,4.78672 -2.31528,5.71402 -1.40173,0.78781 -4.19067,1.12987 -6.82263,0.83678 z m -41.90005,-0.25302 c -0.921751,-0.27944 -4.011752,-2.70307 -3.75554,-2.94564 0.112379,-0.1064 0.9187,-0.0751 1.791825,0.0695 2.03075,0.33635 4.302751,0.109 5.937221,-0.59413 2.596254,-1.11688 3.251895,-2.48973 3.447281,-7.21828 l 0.140498,-3.4002 1.156176,1.15124 c 1.742155,1.73473 2.138434,2.80602 2.145305,5.79958 0.0099,4.30376 -1.057203,6.39664 -3.624978,7.10972 -1.144449,0.31781 -6.2173,0.33759 -7.237788,0.0282 z m 60.09935,-0.16231 c -0.74184,-0.32188 -2.20766,-1.36041 -3.55367,-2.51777 -0.12545,-0.10787 1.24377,-0.17683 3.04271,-0.15324 3.14645,0.0413 3.33117,0.0127 4.85831,-0.75086 2.63531,-1.31765 3.30346,-2.80161 3.30581,-7.34218 8.2e-4,-1.56435 0.10951,-2.84428 0.24154,-2.84428 0.48954,0 2.66649,2.72172 2.92692,3.65936 0.40132,1.4449 0.32954,5.3133 -0.12713,6.85105 -0.46525,1.56669 -1.70697,2.80878 -3.23106,3.23202 -1.52351,0.42308 -6.38042,0.33582 -7.46343,-0.1341 z M 70.507098,122.17527 c -0.844365,-0.44038 -3.3471,-2.38336 -3.42842,-2.66162 -0.029,-0.0992 1.554608,-0.19613 3.519139,-0.21528 3.144686,-0.0307 3.703369,-0.10514 4.671344,-0.62276 2.273953,-1.21597 2.996539,-3.0705 3.01122,-7.72832 l 0.0096,-3.06083 1.435886,1.5233 c 1.798473,1.90795 2.0817,2.87041 1.926477,6.54649 -0.164967,3.90683 -0.951793,5.3604 -3.361913,6.21074 -1.56094,0.55074 -6.732767,0.55624 -7.78338,0.008 z m 20.871538,0.20257 c -0.947343,-0.24064 -4.11207,-2.5183 -4.11207,-2.95946 0,-0.11363 1.20176,-0.14874 2.670578,-0.078 3.416775,0.16453 5.121708,-0.20446 6.535228,-1.41438 1.510381,-1.29283 2.021113,-2.91728 2.053632,-6.53186 0.01407,-1.56328 0.08841,-2.90517 0.165214,-2.98198 0.231367,-0.23136 2.346452,2.21837 2.750732,3.18596 0.53112,1.27115 0.50479,6.00462 -0.0423,7.61035 -0.49167,1.44298 -1.787434,2.68635 -3.21175,3.08188 -0.994802,0.27626 -5.821917,0.33829 -6.809224,0.0875 z m 19.711294,-0.22471 c -0.96185,-0.41723 -3.71503,-2.43687 -3.71503,-2.72521 0,-0.0925 1.3602,-0.12497 3.02267,-0.0722 3.79281,0.1204 5.2754,-0.29574 6.61045,-1.85544 1.20115,-1.40327 1.62199,-3.14889 1.56823,-6.50497 -0.0239,-1.49158 0.0406,-2.71197 0.14335,-2.71197 0.41363,0 2.41488,2.31214 2.79798,3.23264 0.27541,0.66175 0.4094,1.83864 0.4094,3.59597 0,5.8515 -1.60799,7.47218 -7.39021,7.44853 -1.64677,-0.007 -2.85154,-0.14912 -3.44684,-0.40735 z m 20.22976,0.13485 c -0.81154,-0.24039 -3.83646,-2.47497 -3.83646,-2.83407 0,-0.10932 1.28141,-0.15491 2.84758,-0.1013 4.29765,0.14709 6.19276,-0.58351 7.4637,-2.87743 0.58252,-1.05139 0.66539,-1.56351 0.75825,-4.68612 0.0573,-1.92815 0.19568,-3.50572 0.30741,-3.50572 0.32079,0 2.03959,1.99565 2.55002,2.96075 0.68643,1.29788 0.81874,5.49822 0.2363,7.50175 -0.53314,1.83393 -1.69144,3.1141 -3.19547,3.53166 -1.23098,0.34176 -5.98938,0.34876 -7.13133,0.0105 z M 71.244394,103.56061 c -0.652044,-0.20622 -4.08616,-2.70754 -4.08616,-2.97625 0,-0.10372 1.16499,-0.12439 2.588867,-0.0459 4.181006,0.23039 6.492878,-0.719164 7.796956,-3.202439 0.475302,-0.905087 0.597419,-1.694405 0.716002,-4.627934 l 0.142966,-3.536738 1.365322,1.445277 c 1.616515,1.71118 1.938471,2.669934 1.940494,5.778614 0.0028,4.28852 -1.12185,6.20832 -4.089009,6.98006 -1.563581,0.40667 -5.329439,0.51615 -6.375438,0.18534 z m 20.18955,-0.0207 c -0.642498,-0.21003 -4.167378,-2.81305 -4.167378,-3.07748 0,-0.0563 1.102211,-0.03 2.449359,0.0585 4.476913,0.29407 6.750527,-0.641296 8.065022,-3.317967 0.677238,-1.379042 0.730215,-1.722857 0.727728,-4.722893 l -0.0027,-3.235578 1.3988,1.381424 c 1.744775,1.723108 1.998935,2.597066 1.863345,6.407487 -0.13506,3.795877 -0.82728,5.156887 -3.112961,6.120537 -1.084677,0.4573 -6.171367,0.7292 -7.221233,0.38599 z m 18.340276,-1.11129 c -1.08147,-0.78173 -2.00422,-1.54039 -2.05056,-1.68591 -0.053,-0.16646 1.11772,-0.26571 3.15693,-0.26763 2.86758,-0.003 3.38652,-0.0749 4.50206,-0.626379 2.40845,-1.190655 3.18876,-3.054637 3.16677,-7.564646 l -0.0155,-3.166989 1.40905,1.466274 c 1.75656,1.827903 2.07426,2.885639 1.93838,6.453738 -0.13632,3.579642 -0.7337,4.855942 -2.73001,5.832652 -1.18733,0.5809 -1.89872,0.71573 -4.41319,0.83638 l -2.99768,0.14384 z m 21.95544,1.18051 c -0.35659,-0.0764 -1.3145,-0.65159 -2.12868,-1.27808 -2.51974,-1.9389 -2.53753,-1.90529 0.99326,-1.87743 3.57638,0.0282 4.67188,-0.25961 6.18248,-1.624345 1.39809,-1.263092 1.8176,-2.796267 1.82434,-6.667398 l 0.005,-3.060832 1.42342,1.470546 c 1.66759,1.722811 2.00194,2.672361 2.00403,5.691327 0.003,3.777482 -1.03222,5.969502 -3.23869,6.860292 -1.13477,0.45813 -5.7232,0.7737 -7.06549,0.48592 z"
         id="path1" /></g></g></svg>
